<svg width="54" height="54" viewBox="0 0 54 54" fill="none" xmlns="http://www.w3.org/2000/svg">
<path fill-rule="evenodd" clip-rule="evenodd" d="M40.75 27C40.75 34.5939 34.5939 40.75 27 40.75C19.4061 40.75 13.25 34.5939 13.25 27C13.25 19.4061 19.4061 13.25 27 13.25C34.5939 13.25 40.75 19.4061 40.75 27Z" stroke="#231815" stroke-width="2"/>
<line x1="51" y1="26.75" x2="45.5" y2="26.75" stroke="#F25022" stroke-width="2" stroke-linecap="round" stroke-linejoin="round"/>
<line x1="8.49998" y1="26.75" x2="2.99998" y2="26.75" stroke="#F25022" stroke-width="2" stroke-linecap="round" stroke-linejoin="round"/>
<line x1="51" y1="26.75" x2="45.5" y2="26.75" stroke="#231815" stroke-width="2" stroke-linecap="round" stroke-linejoin="round"/>
<line x1="8.49998" y1="26.75" x2="2.99998" y2="26.75" stroke="#231815" stroke-width="2" stroke-linecap="round" stroke-linejoin="round"/>
<g clip-path="url(#clip0)">
<line x1="47.9096" y1="38.7835" x2="43.1465" y2="36.0335" stroke="#231815" stroke-width="2" stroke-linecap="round" stroke-linejoin="round"/>
</g>
<g clip-path="url(#clip1)">
<line x1="11.1036" y1="17.5335" x2="6.34042" y2="14.7835" stroke="#231815" stroke-width="2" stroke-linecap="round" stroke-linejoin="round"/>
</g>
<g clip-path="url(#clip2)">
<line x1="39.2165" y1="47.6596" x2="36.4665" y2="42.8965" stroke="#231815" stroke-width="2" stroke-linecap="round" stroke-linejoin="round"/>
</g>
<g clip-path="url(#clip3)">
<line x1="17.9666" y1="10.8535" x2="15.2166" y2="6.09041" stroke="#231815" stroke-width="2" stroke-linecap="round" stroke-linejoin="round"/>
</g>
<g clip-path="url(#clip4)">
<line x1="27.2501" y1="51.0001" x2="27.2501" y2="45.5001" stroke="#231815" stroke-width="2" stroke-linecap="round" stroke-linejoin="round"/>
</g>
<g clip-path="url(#clip5)">
<line x1="27.2501" y1="8.50003" x2="27.2501" y2="3.00003" stroke="#231815" stroke-width="2" stroke-linecap="round" stroke-linejoin="round"/>
</g>
<g clip-path="url(#clip6)">
<line x1="15.2165" y1="47.9096" x2="17.9665" y2="43.1465" stroke="#231815" stroke-width="2" stroke-linecap="round" stroke-linejoin="round"/>
</g>
<g clip-path="url(#clip7)">
<line x1="36.4666" y1="11.1035" x2="39.2166" y2="6.34038" stroke="#231815" stroke-width="2" stroke-linecap="round" stroke-linejoin="round"/>
</g>
<g clip-path="url(#clip8)">
<line x1="6.34046" y1="39.2165" x2="11.1036" y2="36.4665" stroke="#231815" stroke-width="2" stroke-linecap="round" stroke-linejoin="round"/>
</g>
<g clip-path="url(#clip9)">
<line x1="43.1464" y1="17.9666" x2="47.9096" y2="15.2166" stroke="#231815" stroke-width="2" stroke-linecap="round" stroke-linejoin="round"/>
</g>
<path d="M39.5 27C39.5 33.9036 33.9036 39.5 27 39.5C20.0964 39.5 14.5 33.9036 14.5 27C14.5 20.0965 20.0964 14.5 27 14.5C33.9036 14.5 39.5 20.0965 39.5 27Z" fill="#FFB900"/>
<defs>
<clipPath id="clip0">
<rect x="42.3229" y="32.9599" width="9.99999" height="5" rx="2.5" transform="rotate(30 42.3229 32.9599)" fill="white"/>
</clipPath>
<clipPath id="clip1">
<rect x="5.51689" y="11.7099" width="10" height="5" rx="2.5" transform="rotate(30 5.51689 11.7099)" fill="white"/>
</clipPath>
<clipPath id="clip2">
<rect x="37.2901" y="39.8229" width="10" height="5" rx="2.5" transform="rotate(60 37.2901 39.8229)" fill="white"/>
</clipPath>
<clipPath id="clip3">
<rect x="16.0401" y="3.01685" width="10" height="5" rx="2.5" transform="rotate(60 16.0401 3.01685)" fill="white"/>
</clipPath>
<clipPath id="clip4">
<rect x="29.5" y="43.25" width="10" height="5" rx="2.5" transform="rotate(90 29.5 43.25)" fill="white"/>
</clipPath>
<clipPath id="clip5">
<rect x="29.5" y="0.75" width="10" height="5" rx="2.5" transform="rotate(90 29.5 0.75)" fill="white"/>
</clipPath>
<clipPath id="clip6">
<rect x="21.0401" y="42.3229" width="10" height="5" rx="2.5" transform="rotate(120 21.0401 42.3229)" fill="white"/>
</clipPath>
<clipPath id="clip7">
<rect x="42.2901" y="5.51682" width="10" height="5" rx="2.5" transform="rotate(120 42.2901 5.51682)" fill="white"/>
</clipPath>
<clipPath id="clip8">
<rect x="14.1771" y="37.2901" width="10" height="5" rx="2.5" transform="rotate(150 14.1771 37.2901)" fill="white"/>
</clipPath>
<clipPath id="clip9">
<rect x="50.9831" y="16.0401" width="10" height="5" rx="2.5" transform="rotate(150 50.9831 16.0401)" fill="white"/>
</clipPath>
</defs>
</svg>
