<svg width="25" height="38" viewBox="0 0 25 38" fill="none" xmlns="http://www.w3.org/2000/svg">
<path d="M16.9688 27.9531C18 27.9531 18.901 27.6406 19.6719 27.0156C20.4427 26.3906 20.8698 25.6094 20.9531 24.6719H23.6875C23.6354 25.6406 23.3021 26.5625 22.6875 27.4375C22.0729 28.3125 21.25 29.0104 20.2188 29.5312C19.1979 30.0521 18.1146 30.3125 16.9688 30.3125C14.6667 30.3125 12.8333 29.5469 11.4688 28.0156C10.1146 26.474 9.4375 24.3698 9.4375 21.7031V21.2188C9.4375 19.5729 9.73958 18.1094 10.3438 16.8281C10.9479 15.5469 11.8125 14.5521 12.9375 13.8438C14.0729 13.1354 15.4115 12.7812 16.9531 12.7812C18.849 12.7812 20.4219 13.349 21.6719 14.4844C22.9323 15.6198 23.6042 17.0938 23.6875 18.9062H20.9531C20.8698 17.8125 20.4531 16.9167 19.7031 16.2188C18.9635 15.5104 18.0469 15.1562 16.9531 15.1562C15.4844 15.1562 14.3438 15.6875 13.5312 16.75C12.7292 17.8021 12.3281 19.3281 12.3281 21.3281V21.875C12.3281 23.8229 12.7292 25.3229 13.5312 26.375C14.3333 27.4271 15.4792 27.9531 16.9688 27.9531Z" fill="white"/>
<circle cx="4" cy="17" r="3.25" stroke="white" stroke-width="1.5"/>
</svg>
